<?xml version="1.0" encoding="UTF-8"?>
<svg width="205px" height="230px" viewBox="0 0 205 230" version="1.1" xmlns="http://www.w3.org/2000/svg" xmlns:xlink="http://www.w3.org/1999/xlink">
    <!-- Generator: Sketch 42 (36781) - http://www.bohemiancoding.com/sketch -->
    <title>datalab-integrated</title>
    <desc>Created with Sketch.</desc>
    <defs>
        <path d="M15.8897599,64.3752558 L0.880795049,37.3195646 C-0.29359835,35.2024938 -0.29359835,32.5940531 0.880795049,30.4769824 L15.8897599,3.42129109 C17.0642963,1.30422032 19.2346942,0 21.5836239,0 L51.6015537,0 C53.9504835,0 56.1208814,1.30422032 57.2954177,3.42129109 L72.3043826,30.4769824 C73.478776,32.5940531 73.478776,35.2024938 72.3043826,37.3195646 L57.2954177,64.3752558 C56.1208814,66.4923266 53.9504835,67.7965469 51.6015537,67.7965469 L21.5836239,67.7965469 C19.2346942,67.7965469 17.0642963,66.4923266 15.8897599,64.3752558 L15.8897599,64.3752558 Z" id="path-1"></path>
        <filter x="-50%" y="-50%" width="200%" height="200%" filterUnits="objectBoundingBox" id="filter-2">
            <feOffset dx="0" dy="0" in="SourceAlpha" result="shadowOffsetOuter1"></feOffset>
            <feGaussianBlur stdDeviation="1" in="shadowOffsetOuter1" result="shadowBlurOuter1"></feGaussianBlur>
            <feColorMatrix values="0 0 0 0 0   0 0 0 0 0   0 0 0 0 0  0 0 0 0.24 0" type="matrix" in="shadowBlurOuter1" result="shadowMatrixOuter1"></feColorMatrix>
            <feOffset dx="0" dy="2" in="SourceAlpha" result="shadowOffsetOuter2"></feOffset>
            <feGaussianBlur stdDeviation="1" in="shadowOffsetOuter2" result="shadowBlurOuter2"></feGaussianBlur>
            <feColorMatrix values="0 0 0 0 0   0 0 0 0 0   0 0 0 0 0  0 0 0 0.18 0" type="matrix" in="shadowBlurOuter2" result="shadowMatrixOuter2"></feColorMatrix>
            <feMerge>
                <feMergeNode in="shadowMatrixOuter1"></feMergeNode>
                <feMergeNode in="shadowMatrixOuter2"></feMergeNode>
            </feMerge>
        </filter>
        <path d="M52.8665412,65.3939838 C55.0532794,65.2469406 57.0372051,64.0219649 58.1432462,62.1093624 L73.2235277,36.0137537 C74.4035238,33.9716982 74.4035238,31.4561477 73.2235277,29.4140923 L58.1432462,3.31905747 C56.9626756,1.27700205 54.7819232,0.0195137392 52.421931,0.0195137392 L22.2607935,0.0195137392 C19.9008012,0.0195137392 17.7200489,1.27700205 16.5400528,3.31905747 L1.45919676,29.4140923 C0.279200641,31.4561477 0.279200641,33.9716982 1.45919676,36.0137537 L16.5400528,62.1093624 C17.6455556,64.0219649 19.6294473,65.2469406 21.8161834,65.3939838 L52.8665412,65.3939838" id="path-3"></path>
        <path d="M15.8897599,64.3752558 L0.880795049,37.3195646 C-0.29359835,35.2024938 -0.29359835,32.5940531 0.880795049,30.4769824 L15.8897599,3.42129109 C17.0642963,1.30422032 19.2346942,0 21.5836239,0 L51.6015537,0 C53.9504835,0 56.1208814,1.30422032 57.2954177,3.42129109 L72.3043826,30.4769824 C73.478776,32.5940531 73.478776,35.2024938 72.3043826,37.3195646 L57.2954177,64.3752558 C56.1208814,66.4923266 53.9504835,67.7965469 51.6015537,67.7965469 L21.5836239,67.7965469 C19.2346942,67.7965469 17.0642963,66.4923266 15.8897599,64.3752558 L15.8897599,64.3752558 Z" id="path-5"></path>
        <filter x="-50%" y="-50%" width="200%" height="200%" filterUnits="objectBoundingBox" id="filter-6">
            <feOffset dx="0" dy="0" in="SourceAlpha" result="shadowOffsetOuter1"></feOffset>
            <feGaussianBlur stdDeviation="1" in="shadowOffsetOuter1" result="shadowBlurOuter1"></feGaussianBlur>
            <feColorMatrix values="0 0 0 0 0   0 0 0 0 0   0 0 0 0 0  0 0 0 0.24 0" type="matrix" in="shadowBlurOuter1" result="shadowMatrixOuter1"></feColorMatrix>
            <feOffset dx="0" dy="2" in="SourceAlpha" result="shadowOffsetOuter2"></feOffset>
            <feGaussianBlur stdDeviation="1" in="shadowOffsetOuter2" result="shadowBlurOuter2"></feGaussianBlur>
            <feColorMatrix values="0 0 0 0 0   0 0 0 0 0   0 0 0 0 0  0 0 0 0.18 0" type="matrix" in="shadowBlurOuter2" result="shadowMatrixOuter2"></feColorMatrix>
            <feMerge>
                <feMergeNode in="shadowMatrixOuter1"></feMergeNode>
                <feMergeNode in="shadowMatrixOuter2"></feMergeNode>
            </feMerge>
        </filter>
        <path d="M15.8897599,64.3752558 L0.880795049,37.3195646 C-0.29359835,35.2024938 -0.29359835,32.5940531 0.880795049,30.4769824 L15.8897599,3.42129109 C17.0642963,1.30422032 19.2346942,0 21.5836239,0 L51.6015537,0 C53.9504835,0 56.1208814,1.30422032 57.2954177,3.42129109 L72.3043826,30.4769824 C73.478776,32.5940531 73.478776,35.2024938 72.3043826,37.3195646 L57.2954177,64.3752558 C56.1208814,66.4923266 53.9504835,67.7965469 51.6015537,67.7965469 L21.5836239,67.7965469 C19.2346942,67.7965469 17.0642963,66.4923266 15.8897599,64.3752558 L15.8897599,64.3752558 Z" id="path-7"></path>
        <filter x="-50%" y="-50%" width="200%" height="200%" filterUnits="objectBoundingBox" id="filter-8">
            <feOffset dx="0" dy="0" in="SourceAlpha" result="shadowOffsetOuter1"></feOffset>
            <feGaussianBlur stdDeviation="1" in="shadowOffsetOuter1" result="shadowBlurOuter1"></feGaussianBlur>
            <feColorMatrix values="0 0 0 0 0   0 0 0 0 0   0 0 0 0 0  0 0 0 0.24 0" type="matrix" in="shadowBlurOuter1" result="shadowMatrixOuter1"></feColorMatrix>
            <feOffset dx="0" dy="2" in="SourceAlpha" result="shadowOffsetOuter2"></feOffset>
            <feGaussianBlur stdDeviation="1" in="shadowOffsetOuter2" result="shadowBlurOuter2"></feGaussianBlur>
            <feColorMatrix values="0 0 0 0 0   0 0 0 0 0   0 0 0 0 0  0 0 0 0.18 0" type="matrix" in="shadowBlurOuter2" result="shadowMatrixOuter2"></feColorMatrix>
            <feMerge>
                <feMergeNode in="shadowMatrixOuter1"></feMergeNode>
                <feMergeNode in="shadowMatrixOuter2"></feMergeNode>
            </feMerge>
        </filter>
        <path d="M91.8897599,65.3100152 L76.880795,38.2543239 C75.7064017,36.1372531 75.7064017,33.5288125 76.880795,31.4117417 L91.8897599,4.3560504 C93.0642963,2.23897963 95.2346942,0.934759312 97.5836239,0.934759312 L127.601554,0.934759312 C129.950483,0.934759312 132.120881,2.23897963 133.295418,4.3560504 L148.304383,31.4117417 C149.478776,33.5288125 149.478776,36.1372531 148.304383,38.2543239 L133.295418,65.3100152 C132.120881,67.4270859 129.950483,68.7313062 127.601554,68.7313062 L97.5836239,68.7313062 C95.2346942,68.7313062 93.0642963,67.4270859 91.8897599,65.3100152 L91.8897599,65.3100152 Z" id="path-9"></path>
        <filter x="-50%" y="-50%" width="200%" height="200%" filterUnits="objectBoundingBox" id="filter-10">
            <feOffset dx="0" dy="0" in="SourceAlpha" result="shadowOffsetOuter1"></feOffset>
            <feGaussianBlur stdDeviation="1" in="shadowOffsetOuter1" result="shadowBlurOuter1"></feGaussianBlur>
            <feColorMatrix values="0 0 0 0 0   0 0 0 0 0   0 0 0 0 0  0 0 0 0.24 0" type="matrix" in="shadowBlurOuter1" result="shadowMatrixOuter1"></feColorMatrix>
            <feOffset dx="0" dy="2" in="SourceAlpha" result="shadowOffsetOuter2"></feOffset>
            <feGaussianBlur stdDeviation="1" in="shadowOffsetOuter2" result="shadowBlurOuter2"></feGaussianBlur>
            <feColorMatrix values="0 0 0 0 0   0 0 0 0 0   0 0 0 0 0  0 0 0 0.18 0" type="matrix" in="shadowBlurOuter2" result="shadowMatrixOuter2"></feColorMatrix>
            <feMerge>
                <feMergeNode in="shadowMatrixOuter1"></feMergeNode>
                <feMergeNode in="shadowMatrixOuter2"></feMergeNode>
            </feMerge>
        </filter>
        <path d="M15.8897599,115.375256 L0.880795049,88.3195646 C-0.29359835,86.2024938 -0.29359835,83.5940531 0.880795049,81.4769824 L15.8897599,54.4212911 C17.0642963,52.3042203 19.2346942,51 21.5836239,51 L51.6015537,51 C53.9504835,51 56.1208814,52.3042203 57.2954177,54.4212911 L72.3043826,81.4769824 C73.478776,83.5940531 73.478776,86.2024938 72.3043826,88.3195646 L57.2954177,115.375256 C56.1208814,117.492327 53.9504835,118.796547 51.6015537,118.796547 L21.5836239,118.796547 C19.2346942,118.796547 17.0642963,117.492327 15.8897599,115.375256 L15.8897599,115.375256 Z" id="path-11"></path>
        <filter x="-50%" y="-50%" width="200%" height="200%" filterUnits="objectBoundingBox" id="filter-12">
            <feOffset dx="0" dy="0" in="SourceAlpha" result="shadowOffsetOuter1"></feOffset>
            <feGaussianBlur stdDeviation="1" in="shadowOffsetOuter1" result="shadowBlurOuter1"></feGaussianBlur>
            <feColorMatrix values="0 0 0 0 0   0 0 0 0 0   0 0 0 0 0  0 0 0 0.24 0" type="matrix" in="shadowBlurOuter1" result="shadowMatrixOuter1"></feColorMatrix>
            <feOffset dx="0" dy="2" in="SourceAlpha" result="shadowOffsetOuter2"></feOffset>
            <feGaussianBlur stdDeviation="1" in="shadowOffsetOuter2" result="shadowBlurOuter2"></feGaussianBlur>
            <feColorMatrix values="0 0 0 0 0   0 0 0 0 0   0 0 0 0 0  0 0 0 0.18 0" type="matrix" in="shadowBlurOuter2" result="shadowMatrixOuter2"></feColorMatrix>
            <feMerge>
                <feMergeNode in="shadowMatrixOuter1"></feMergeNode>
                <feMergeNode in="shadowMatrixOuter2"></feMergeNode>
            </feMerge>
        </filter>
        <path d="M15.8897599,64.3752558 L0.880795049,37.3195646 C-0.29359835,35.2024938 -0.29359835,32.5940531 0.880795049,30.4769824 L15.8897599,3.42129109 C17.0642963,1.30422032 19.2346942,0 21.5836239,0 L51.6015537,0 C53.9504835,0 56.1208814,1.30422032 57.2954177,3.42129109 L72.3043826,30.4769824 C73.478776,32.5940531 73.478776,35.2024938 72.3043826,37.3195646 L57.2954177,64.3752558 C56.1208814,66.4923266 53.9504835,67.7965469 51.6015537,67.7965469 L21.5836239,67.7965469 C19.2346942,67.7965469 17.0642963,66.4923266 15.8897599,64.3752558 L15.8897599,64.3752558 Z" id="path-13"></path>
        <filter x="-50%" y="-50%" width="200%" height="200%" filterUnits="objectBoundingBox" id="filter-14">
            <feOffset dx="0" dy="0" in="SourceAlpha" result="shadowOffsetOuter1"></feOffset>
            <feGaussianBlur stdDeviation="1" in="shadowOffsetOuter1" result="shadowBlurOuter1"></feGaussianBlur>
            <feColorMatrix values="0 0 0 0 0   0 0 0 0 0   0 0 0 0 0  0 0 0 0.24 0" type="matrix" in="shadowBlurOuter1" result="shadowMatrixOuter1"></feColorMatrix>
            <feOffset dx="0" dy="2" in="SourceAlpha" result="shadowOffsetOuter2"></feOffset>
            <feGaussianBlur stdDeviation="1" in="shadowOffsetOuter2" result="shadowBlurOuter2"></feGaussianBlur>
            <feColorMatrix values="0 0 0 0 0   0 0 0 0 0   0 0 0 0 0  0 0 0 0.18 0" type="matrix" in="shadowBlurOuter2" result="shadowMatrixOuter2"></feColorMatrix>
            <feMerge>
                <feMergeNode in="shadowMatrixOuter1"></feMergeNode>
                <feMergeNode in="shadowMatrixOuter2"></feMergeNode>
            </feMerge>
        </filter>
        <linearGradient x1="1.06341024e-07%" y1="9.14856261e-08%" x2="74.5209927%" y2="64.1103734%" id="linearGradient-15">
            <stop stop-color="#5A9FD4" offset="0%"></stop>
            <stop stop-color="#306998" offset="100%"></stop>
        </linearGradient>
        <linearGradient x1="49.9999998%" y1="82.2756107%" x2="23.4426562%" y2="44.914431%" id="linearGradient-16">
            <stop stop-color="#FFD43B" offset="0%"></stop>
            <stop stop-color="#FFE873" offset="100%"></stop>
        </linearGradient>
    </defs>
    <g id="Page-1" stroke="none" stroke-width="1" fill="none" fill-rule="evenodd">
        <g id="Custom-Graphics" transform="translate(-445.000000, -537.000000)">
            <g id="datalab-integrated-copy" transform="translate(434.000000, 539.000000)">
                <g id="datalab-integrated">
                    <g id="Clip-2-Copy-5-+-maven-logo-copy" transform="translate(140.756809, 38.916988)" opacity="0.87">
                        <g id="Clip-2-Copy-5">
                            <use fill="black" fill-opacity="1" filter="url(#filter-2)" xlink:href="#path-1"></use>
                            <use fill="#FFFFFF" fill-rule="evenodd" xlink:href="#path-1"></use>
                        </g>
                    </g>
                    <g id="datalab-logo" transform="translate(76.000000, 78.000000)">
                        <g id="Group-3">
                            <mask id="mask-4" fill="white">
                                <use xlink:href="#path-3"></use>
                            </mask>
                            <use id="Clip-2" fill="#0E62C2" xlink:href="#path-3"></use>
                            <path d="M37.6823202,10.75494 L35.7020638,12.7637073 L40.6713756,17.728806 L38.3785984,18.2723211 L43.3197603,23.7103411 L41.5641283,24.1149642 L35.6285295,18.1850832 L33.5994417,20.1335874 L37.8328358,24.3629035 L34.0107743,24.3164148 L31.4801595,25.7942936 L33.9872204,28.2989394 L25.7559719,42.5784051 L28.1343477,48.9421798 L44.6169518,65.4089061 L52.421931,65.4089061 C54.7819232,65.4089061 56.9626756,64.1508438 58.1432462,62.1093624 L69.4692557,42.510681 L37.6823202,10.75494" id="Fill-1" fill="#0451B0" mask="url(#mask-4)"></path>
                        </g>
                        <path d="M35.957136,19.0873067 C35.957136,19.8649866 35.3263494,20.4951655 34.5479196,20.4951655 C33.7694898,20.4951655 33.1387032,19.8649866 33.1387032,19.0873067 C33.1387032,18.3102007 33.7694898,17.6794478 34.5479196,17.6794478 C35.3263494,17.6794478 35.957136,18.3102007 35.957136,19.0873067" id="Fill-4" fill="#FFFFFF"></path>
                        <path d="M41.9789079,16.7703371 C41.9789079,17.93657 41.0321534,18.8824124 39.864796,18.8824124 C38.6974386,18.8824124 37.7512586,17.93657 37.7512586,16.7703371 C37.7512586,15.6041042 38.6974386,14.6582618 39.864796,14.6582618 C41.0321534,14.6582618 41.9789079,15.6041042 41.9789079,16.7703371" id="Fill-5" fill="#FFFFFF"></path>
                        <path d="M38.0706734,11.7254616 C38.0706734,12.5031415 37.4398867,13.1333204 36.661457,13.1333204 C35.8830272,13.1333204 35.2522406,12.5031415 35.2522406,11.7254616 C35.2522406,10.9477817 35.8830272,10.3176027 36.661457,10.3176027 C37.4398867,10.3176027 38.0706734,10.9477817 38.0706734,11.7254616" id="Fill-6" fill="#FFFFFF"></path>
                        <path d="M42.5953323,43.045013 L41.600321,41.3232125 L48.4131613,41.3232125 L41.6347902,29.5943074 L41.3986761,29.5960292 L47.2308672,39.601412 L32.0644127,39.601412 L30.2467361,42.7459937 C30.1209234,42.9640884 30.1209234,43.2321154 30.2467361,43.4502101 L32.4579362,47.2766248 L47.0234775,47.2766248 L49.4386204,43.0983889 L49.4081726,43.045013 L42.5953323,43.045013" id="Fill-7" fill="#FFFFFF"></path>
                        <path d="M49.7080548,42.3166914 L42.0162495,29.0065995 C41.9542049,28.8998478 41.9214592,28.7781739 41.9214592,28.6547782 L41.9214592,25.8270078 L43.0434321,25.8270078 C43.202565,25.8270078 43.3306756,25.7007425 43.3306756,25.5423368 L43.3306756,23.9209747 C43.3306756,23.7619951 43.202565,23.6340079 43.0434321,23.6340079 L31.6398668,23.6340079 C31.4813085,23.6340079 31.3526234,23.7619951 31.3526234,23.9209747 L31.3526234,25.5423368 C31.3526234,25.7007425 31.4813085,25.8270078 31.6398668,25.8270078 L32.7618398,25.8270078 L32.7618398,28.6547782 C32.7618398,28.7781739 32.729094,28.8998478 32.6670494,29.0065995 L24.9752441,42.3166914 C24.7236189,42.752307 24.7236189,43.2889348 24.9752441,43.7245503 L27.7856341,48.5874889 C28.0372594,49.0231045 28.5025938,49.2917053 29.0064188,49.2917053 L45.6768801,49.2917053 C46.1807051,49.2917053 46.6460396,49.0231045 46.8976648,48.5874889 L49.7080548,43.7245503 C49.9596801,43.2889348 49.9596801,42.752307 49.7080548,42.3166914 L49.7080548,42.3166914 Z M47.3078485,43.31304 L45.3925091,46.627506 C45.2666965,46.8450268 45.0340293,46.9793272 44.782404,46.9793272 L29.900895,46.9793272 C29.6492697,46.9793272 29.4166025,46.8450268 29.2907898,46.627506 L27.3754505,43.31304 C27.2496378,43.0955192 27.2496378,42.8269183 27.3754505,42.6093975 L34.8276947,29.7142595 C34.9512094,29.5001823 35.0167009,29.2574084 35.0167009,29.010617 L35.0167009,25.8270078 L39.666598,25.8270078 L39.666598,29.010617 C39.666598,29.2574084 39.731515,29.5001823 39.8556042,29.7142595 L47.3078485,42.6093975 C47.4336611,42.8269183 47.4336611,43.0955192 47.3078485,43.31304 L47.3078485,43.31304 Z" id="Fill-8" fill="#FFFFFF"></path>
                        <polyline id="Fill-9" fill="#FFFFFF" points="37.0814069 33.8333803 43.9574408 33.8333803 42.9245133 32.2028352 36.1392484 32.2028352 37.0814069 33.8333803"></polyline>
                        <polyline id="Fill-10" fill="#FFFFFF" points="38.4906233 36.157811 39.4758684 37.8623935 46.4915026 37.8623935 45.4792566 36.157811 38.4906233 36.157811"></polyline>
                    </g>
                    <g id="Clip-2-Copy-+-github-logo" transform="translate(76.987243, 155.275220)" opacity="0.87">
                        <g id="Clip-2-Copy">
                            <use fill="black" fill-opacity="1" filter="url(#filter-6)" xlink:href="#path-5"></use>
                            <use fill="#FFFFFF" fill-rule="evenodd" xlink:href="#path-5"></use>
                        </g>
                    </g>
                    <g id="Clip-2-+-jenkins_logo" transform="translate(15.987243, 40.594595)" opacity="0.87">
                        <g id="Clip-2">
                            <use fill="black" fill-opacity="1" filter="url(#filter-8)" xlink:href="#path-7"></use>
                            <use fill="#FFFFFF" fill-rule="evenodd" xlink:href="#path-7"></use>
                        </g>
                    </g>
                    <g id="Clip-2-Copy-4" opacity="0.87">
                        <use fill="black" fill-opacity="1" filter="url(#filter-10)" xlink:href="#path-9"></use>
                        <use fill="#FFFFFF" fill-rule="evenodd" xlink:href="#path-9"></use>
                    </g>
                    <g id="Clip-2-Copy-3-+-intellij" transform="translate(140.756809, 64.594595)">
                        <g id="Clip-2-Copy-3" opacity="0.87">
                            <use fill="black" fill-opacity="1" filter="url(#filter-12)" xlink:href="#path-11"></use>
                            <use fill="#FFFFFF" fill-rule="evenodd" xlink:href="#path-11"></use>
                        </g>
                        <g id="Fill-4-+-Fill-5-Copy" transform="translate(23.000000, 0.000000)" fill="#1F73D4">
                            <path d="M27.6463668,0 L0.786145698,0.00080819099 C0.353773667,0.00080819099 0,0.353664377 0,0.78491509 L0.000810292411,6.32360958 C0.000810292411,6.7540521 0.354583959,7.10690829 0.786145698,7.10690829 L27.6457186,7.10690829 C28.0780906,7.10690829 28.4318643,6.7540521 28.4318643,6.32360958 L28.4318643,0.784106899 C28.4318643,0.353664377 28.0789009,0 27.6463668,0 M23.4872979,5.15625852 C22.6013242,5.15625852 21.8827569,4.43599871 21.8811363,3.55313087 C21.8827569,2.66622208 22.5988933,1.95145796 23.4872979,1.95145796 C24.3750543,1.95145796 25.0944319,2.66460569 25.0944319,3.55313087 C25.0944319,4.43761509 24.3750543,5.15625852 23.4872979,5.15625852" id="Fill-4"></path>
                            <path d="M27.6463668,10 L0.786145698,10.0008082 C0.353773667,10.0008082 0,10.3539877 0,10.7860466 L0.000810292411,16.3236096 C0.000810292411,16.7540521 0.354583959,17.1077165 0.786145698,17.1077165 L27.6457186,17.1077165 C28.0780906,17.1077165 28.4318643,16.7540521 28.4318643,16.3236096 L28.4318643,10.7849151 C28.4318643,10.3539877 28.0789009,10 27.6463668,10 M23.4872979,15.1562585 C22.6013242,15.1562585 21.8827569,14.4364836 21.8811363,13.5531309 C21.8827569,12.6662221 22.5988933,11.9517812 23.4872979,11.9517812 C24.3750543,11.9517812 25.0944319,12.6657372 25.0944319,13.5531309 C25.0944319,14.4387466 24.3750543,15.1562585 23.4872979,15.1562585" id="Fill-5"></path>
                        </g>
                    </g>
                    <g id="Clip-2-Copy-2-+-pycharm" transform="translate(12.987243, 117.749877)" opacity="0.87">
                        <g id="Clip-2-Copy-2">
                            <use fill="black" fill-opacity="1" filter="url(#filter-14)" xlink:href="#path-13"></use>
                            <use fill="#FFFFFF" fill-rule="evenodd" xlink:href="#path-13"></use>
                        </g>
                    </g>
                    <g id="Group-Copy-2" transform="translate(37.000000, 60.000000)" fill="#1F73D4">
                        <path d="M14.7719774,0.3827518 C6.96248408,0.3827518 0.631245113,6.70730135 0.631245113,14.5094925 C0.631245113,22.3109223 6.96248408,28.6356241 14.7719774,28.6356241 C22.5814708,28.6356241 28.9127097,22.3109223 28.9127097,14.5094925 C28.9127097,6.70730135 22.5814708,0.3827518 14.7719774,0.3827518 M14.7719774,25.2276848 C8.84615722,25.2276848 4.04270688,20.4291941 4.04270688,14.5094925 C4.04270688,8.58979084 8.84615722,3.79023438 14.7719774,3.79023438 C20.6977976,3.79023438 25.5018576,8.58979084 25.5018576,14.5094925 C25.5018576,20.4291941 20.6977976,25.2276848 14.7719774,25.2276848" id="Fill-4"></path>
                        <path d="M8.05970578,13.9639603 L8.05970578,18.3545579 C8.70959511,19.4705922 9.62956041,20.4069648 10.7305924,21.0800872 L10.7305924,13.9639603 L8.05970578,13.9639603" id="Fill-5"></path>
                        <path d="M13.3549931,10.262472 L13.3549931,22.0840613 C13.8090316,22.1670407 14.2735867,22.2180464 14.7506396,22.2180464 C15.1862361,22.2180464 15.6100969,22.1722174 16.0266418,22.102941 L16.0266418,10.262472 L13.3549931,10.262472" id="Fill-6"></path>
                        <path d="M18.8967324,15.7890494 L18.8967324,21.0030459 C20.0139202,20.2907937 20.9376958,19.3085922 21.5683811,18.1406387 L21.5683811,15.7890494 L18.8967324,15.7890494" id="Fill-7"></path>
                        <path d="M24.9481409,23.210449 L23.4831465,24.6751489 C23.2246539,24.9326132 23.2246539,25.3529912 23.4831465,25.6112169 L29.0396698,31.1606327 C29.2974003,31.4187061 29.7189749,31.4187061 29.9767054,31.1606327 L31.4416998,29.6982167 C31.6986683,29.4407523 31.6986683,29.019613 31.4416998,28.7624531 L25.8844144,23.210449 C25.627446,22.9534414 25.2051094,22.9534414 24.9481409,23.210449" id="Fill-8"></path>
                    </g>
                    <g id="Group-Copy-6" transform="translate(31.000000, 131.000000)">
                        <g id="Group" transform="translate(0.000000, 15.972058)" fill="#414042">
                            <path d="M1.53537438,6.2635523 C1.53537438,7.58933753 1.43092715,8.0277862 1.15936433,8.35140306 C0.919135686,8.61238441 0.522236185,8.73765546 0.0626683422,8.77941247 L0.167115579,9.57279576 C0.710241212,9.57279576 1.44137187,9.38488919 1.89049499,8.94644053 C2.381397,8.44535635 2.55895731,7.74592634 2.55895731,6.66024394 L2.55895731,1.6285236 L1.54581911,1.6285236 L1.54581911,6.2635523 L1.53537438,6.2635523 Z" id="Shape"></path>
                            <path d="M9.06602017,5.65807558 C9.06602017,6.23223454 9.0764649,6.73331872 9.10779907,7.17176738 L8.20955283,7.17176738 L8.15732921,6.2635523 L8.13643977,6.2635523 C7.87532167,6.71244021 7.29041715,7.29703843 6.29816839,7.29703843 C5.43125633,7.29703843 4.38678396,6.81683275 4.38678396,4.86469228 L4.38678396,1.61808434 L5.39992215,1.61808434 L5.39992215,4.68722497 C5.39992215,5.74158961 5.72370859,6.45145887 6.64284428,6.45145887 C7.32175132,6.45145887 7.79176388,5.98169244 7.96932419,5.53280453 C8.0215478,5.38665498 8.0633267,5.19874841 8.0633267,5.02128109 L8.0633267,1.61808434 L9.0764649,1.61808434 L9.0764649,5.65807558 L9.06602017,5.65807558 Z" id="Shape"></path>
                            <path d="M10.9774046,3.43451451 C10.9774046,2.72464525 10.9565152,2.15048629 10.9356257,1.6285236 L11.8443167,1.6285236 L11.8860956,2.5784957 L11.906985,2.5784957 C12.324774,1.8999442 12.9723468,1.50325255 13.8810378,1.50325255 C15.2179624,1.50325255 16.2311006,2.64113122 16.2311006,4.32185109 C16.2311006,6.31574857 15.0195127,7.29703843 13.7034775,7.29703843 C12.9723468,7.29703843 12.324774,6.97342156 11.9905428,6.43058036 L11.9696534,6.43058036 L11.9696534,9.44752472 L10.9669599,9.44752472 L10.9669599,3.43451451 L10.9774046,3.43451451 Z M11.9696534,4.91688855 C11.9696534,5.06303811 11.9905428,5.19874841 12.0114323,5.33445871 C12.1994373,6.03388871 12.8052313,6.51409439 13.5259172,6.51409439 C14.591279,6.51409439 15.2075177,5.64763632 15.2075177,4.37404735 C15.2075177,3.2570472 14.6226132,2.3070751 13.5572514,2.3070751 C12.8678996,2.3070751 12.2307715,2.79772003 12.0323217,3.55978556 C12.0009875,3.6850566 11.9592086,3.83120616 11.9592086,3.97735571 L11.9592086,4.91688855 L11.9696534,4.91688855 Z" id="Shape"></path>
                            <path d="M18.0171484,1.6285236 L19.2287363,4.9064493 C19.354073,5.27182318 19.4898544,5.71027185 19.5838569,6.04432797 L19.6047464,6.04432797 C19.7091936,5.71027185 19.8240856,5.29270169 19.959867,4.88557079 L21.056563,1.6285236 L22.1219248,1.6285236 L20.6074399,5.5850008 C19.8867539,7.484945 19.3958519,8.46623486 18.7065002,9.06127232 C18.2155981,9.49972099 17.7246961,9.66674905 17.463578,9.71894532 L17.2129047,8.87336576 C17.463578,8.78985173 17.7978092,8.63326292 18.1007062,8.38272083 C18.372269,8.1634965 18.7169449,7.7772441 18.9467288,7.25528141 C18.9885077,7.15088887 19.0302866,7.06737484 19.0302866,7.01517857 C19.0302866,6.9629823 19.0093971,6.87946827 18.9571735,6.75419723 L16.899563,1.63896285 L18.0171484,1.63896285 L18.0171484,1.6285236 Z" id="Shape"></path>
                            <path d="M24.7853293,0.0313177615 L24.7853293,1.6285236 L26.2267012,1.6285236 L26.2267012,2.40102838 L24.7853293,2.40102838 L24.7853293,5.39709423 C24.7853293,6.08608498 24.9837791,6.47233737 25.5373495,6.47233737 C25.7984675,6.47233737 25.9969173,6.44101961 26.122254,6.3992626 L26.1640329,7.15088887 C25.9655831,7.2344029 25.6626861,7.28659917 25.2657866,7.28659917 C24.7957741,7.28659917 24.419764,7.14044962 24.1795354,6.85858977 C23.8975278,6.55585141 23.7930806,6.06520648 23.7930806,5.41797274 L23.7930806,2.39058913 L22.9366133,2.39058913 L22.9366133,1.61808434 L23.7930806,1.61808434 L23.7930806,0.292299107 L24.7853293,0.0313177615 L24.7853293,0.0313177615 Z" id="Shape"></path>
                            <path d="M28.085862,4.58283243 C28.1067515,5.95037468 28.9841083,6.50365514 29.9868018,6.50365514 C30.7074877,6.50365514 31.1461661,6.37838409 31.5221761,6.22179528 L31.6892917,6.9421038 C31.3341711,7.0986926 30.7283771,7.28659917 29.8405756,7.28659917 C28.1276409,7.28659917 27.1145027,6.15915976 27.1145027,4.48887915 C27.1145027,2.81859853 28.0963068,1.4928133 29.7152389,1.4928133 C31.5221761,1.4928133 32.0130782,3.09001913 32.0130782,4.10262676 C32.0130782,4.31141183 31.9921887,4.46800064 31.981744,4.57239318 L28.085862,4.57239318 L28.085862,4.58283243 Z M31.0521636,3.86252392 C31.0626083,3.22572943 30.7910455,2.22356107 29.6525706,2.22356107 C28.6289877,2.22356107 28.1798646,3.16309391 28.1067515,3.86252392 L31.0521636,3.86252392 L31.0521636,3.86252392 Z" id="Shape"></path>
                            <path d="M33.5066736,3.35100048 C33.5066736,2.69332749 33.4962289,2.14004704 33.4648947,1.61808434 L34.3526963,1.61808434 L34.3840304,2.70376674 L34.4258093,2.70376674 C34.6764827,1.96257972 35.2822767,1.4928133 35.9611837,1.4928133 C36.0760757,1.4928133 36.1596335,1.50325255 36.2431913,1.52413106 L36.2431913,2.47410316 C36.138744,2.45322465 36.0342968,2.4427854 35.8985154,2.4427854 C35.1882742,2.4427854 34.6869274,2.9856266 34.5407013,3.73725287 C34.5198118,3.87296317 34.4989224,4.03999123 34.4989224,4.20701929 L34.4989224,7.16132813 L33.4962289,7.16132813 L33.4962289,3.35100048 L33.5066736,3.35100048 Z" id="Shape"></path>
                        </g>
                        <ellipse id="Oval" fill="#6D6E71" cx="29.6107917" cy="2.25487883" rx="2.23517087" ry="2.23400032"></ellipse>
                        <g id="Group" transform="translate(2.193392, 3.340561)" fill="#F37625">
                            <path d="M15.9595378,28.749705 C9.11824379,28.749705 3.15430656,26.2964804 0.0522236185,22.6636201 C2.40228645,29.1777145 8.6377865,33.8231824 15.9595378,33.8231824 C23.2812891,33.8231824 29.5167892,29.1672752 31.866852,22.6636201 C28.7543244,26.2964804 22.8008318,28.749705 15.9595378,28.749705 L15.9595378,28.749705 Z" id="Shape"></path>
                            <path d="M15.9595378,5.11523438 C22.8008318,5.11523438 28.7647691,7.56845903 31.866852,11.2013194 C29.5167892,4.68722497 23.2812891,0.0417570153 15.9595378,0.0417570153 C8.6377865,0.0417570153 2.40228645,4.69766422 0.0522236185,11.2013194 C3.15430656,7.57889828 9.11824379,5.11523438 15.9595378,5.11523438 L15.9595378,5.11523438 Z" id="Shape"></path>
                        </g>
                        <ellipse id="Oval" fill="#939598" cx="6.71595734" cy="39.1889589" rx="2.69473872" ry="2.69332749"></ellipse>
                        <ellipse id="Oval" fill="#58595B" cx="4.0525528" cy="5.32401945" rx="1.63982162" ry="1.63896285"></ellipse>
                    </g>
                    <g id="path1948-+-path1950" transform="translate(161.000000, 133.000000)">
                        <path d="M15.917337,0.00026899126 C14.588838,0.00650114538 13.3201512,0.120889146 12.2038375,0.320314186 C8.91531716,0.906857554 8.31824934,2.13454311 8.31824905,4.39860441 L8.31824905,7.38874094 L16.089426,7.38874094 L16.089426,8.38545312 L8.31824905,8.38545312 L5.40179338,8.38545312 C3.14327301,8.38545312 1.16564791,9.75596843 0.547072079,12.3631577 C-0.166447315,15.3516017 -0.198095779,17.2164395 0.547072079,20.3368551 C1.0994751,22.6595718 2.41868833,24.3145591 4.67720812,24.3145597 L7.34911626,24.3145597 L7.34911626,20.7300535 C7.34911626,18.1404593 9.56841773,15.856223 12.2038375,15.8562224 L19.9659571,15.8562224 C22.1266561,15.8562224 23.8515464,14.0601173 23.8515456,11.8693737 L23.8515456,4.39860441 C23.8515456,2.27238098 22.0748683,0.67517228 19.9659571,0.320314186 C18.630985,0.0959605879 17.2458359,-0.00596316286 15.917337,0.00026899126 L15.917337,0.00026899126 Z M11.7147425,2.40518006 C12.5174516,2.40518006 13.1729703,3.07779318 13.1729703,3.9048204 C13.1729697,4.72891622 12.5174516,5.39531659 11.7147425,5.39531659 C10.9091555,5.3953163 10.2565146,4.72891592 10.2565146,3.9048204 C10.2565143,3.07779347 10.9091555,2.40518006 11.7147425,2.40518006 L11.7147425,2.40518006 Z" id="path1948" fill="url(#linearGradient-15)"></path>
                        <path d="M24.6177842,8.48576973 L24.6177842,11.9696903 C24.6177842,14.6707269 22.3495729,16.9441067 19.763063,16.944107 L12.0009434,16.944107 C9.87476878,16.944107 8.1153552,18.7812712 8.11535491,20.9309557 L8.11535491,28.4017241 C8.11535491,30.5279478 9.9466972,31.7785689 12.0009434,32.3885728 C14.4608613,33.1188201 16.8197939,33.2507943 19.763063,32.3885728 C21.7194881,31.8166934 23.6486523,30.6657831 23.6486514,28.4017241 L23.6486514,25.4115885 L15.8865318,25.4115885 L15.8865318,24.4148763 L23.6486514,24.4148763 L27.534241,24.4148763 C29.7927617,24.4148763 30.6343791,22.8244066 31.4198266,20.4371717 C32.2311679,17.9795506 32.1966458,15.6161496 31.4198266,12.4634743 C30.8616699,10.1935482 29.7956339,8.48576973 27.534241,8.48576973 L24.6177842,8.48576973 L24.6177842,8.48576973 Z M20.252158,27.4050128 C21.0577455,27.4050137 21.7103858,28.0714141 21.7103858,28.8955081 C21.7103853,29.7225342 21.0577447,30.3951485 20.252158,30.3951485 C19.449448,30.3951485 18.7939302,29.7225342 18.7939302,28.8955081 C18.7939308,28.0714141 19.4494471,27.4050128 20.252158,27.4050128 L20.252158,27.4050128 Z" id="path1950" fill="url(#linearGradient-16)"></path>
                    </g>
                    <g id="Integrated-cloud-v2" transform="translate(0.000000, 111.500000)">
                        <g id="Group" transform="translate(0.497992, 0.500000)"></g>
                    </g>
                    <g id="sql-symbol-copy" transform="translate(96.000000, 180.934759)" fill="#1F73D4">
                        <polygon id="Shape" points="31.7396589 13.8432248 31.7396589 0.0796899225 28.2988527 0.0796899225 28.2988527 17.2851473 38.6219535 17.2851473 38.6219535 13.8432248"></polygon>
                        <path d="M0.447503876,17.2851473 L1.30821705,13.844031 L7.32905426,13.844031 L7.32905426,10.4024806 L3.88756589,10.4024806 C1.98617054,10.4024806 0.447503876,8.86412403 0.447503876,6.96130233 L0.447503876,3.52018605 C0.447503876,1.61848062 1.98617054,0.0790697674 3.88756589,0.0790697674 L10.7706047,0.0790697674 L9.90982946,3.52018605 L3.88756589,3.52018605 L3.88756589,6.96130233 L7.32905426,6.96130233 C9.23181395,6.96130233 10.7705426,8.50003101 10.7705426,10.4024806 L10.7705426,13.843969 C10.7705426,15.7452403 9.23181395,17.2850853 7.32905426,17.2850853 L0.447503876,17.2850853 L0.447503876,17.2851473 Z" id="Shape"></path>
                        <path d="M23.8347907,13.843969 C23.8347907,13.8432248 23.8355349,13.8432248 23.8355349,13.8432248 L23.8355349,3.52012403 C23.8355349,1.6184186 22.2945736,0.0796899225 20.3947287,0.0796899225 L16.9539845,0.0796899225 C15.0533953,0.0796899225 13.5131783,1.6184186 13.5131783,3.52012403 L13.5131783,13.8425426 C13.5131783,15.7442481 15.0533953,17.2844651 16.9539845,17.2844651 L19.3691783,17.2844651 L19.3691783,17.2851473 L25.5562791,17.2851473 L25.5562791,13.844031 L23.8347907,13.844031 L23.8347907,13.843969 Z M16.9539845,3.52012403 L20.3939845,3.52012403 L20.3939845,13.8425426 L16.9539845,13.8425426 L16.9539845,3.52012403 L16.9539845,3.52012403 Z" id="Shape"></path>
                    </g>
                    <polygon id="Shape" fill="#1F73D4" points="123.390545 37.4605263 129.992768 37.4605263 131.391602 35 127.194957 27.6184211 120.336236 27.6184211 118.43567 24.2894737 116.492188 24.2894737 116.492188 21.9736842 119.750383 21.9736842 121.650949 25.3026316 125.878391 25.3026316 121.764014 18.0657895 113.640625 18.0657895 113.640625 27.7631579 116.908088 27.7631579 118.23877 30.0789474 113.640625 30.0789474 113.640625 34.8552632 117.972576 34.8552632 119.949279 31.3815789 125.183893 31.3815789 126.501457 33.6973684 121.265846 33.6973684 119.289143 37.1710526 113.640625 37.1710526 113.640625 46.1447368 120.683557 46.1447368 119.36585 48.4605263 113.640625 48.4605263 113.640625 51.9342105 121.764014 51.9342105 128.676201 39.7763158 124.707111 39.7763158 122.896227 42.9605263 116.492188 42.9605263 116.492188 40.6447368 121.57966 40.6447368"></polygon>
                    <polygon id="Shape" fill="#1F73D4" points="103.277762 40.6447368 101.466877 37.4605263 94.8646543 37.4605263 93.4658203 35 97.6624648 27.6184211 104.521186 27.6184211 106.421752 24.2894737 108.365234 24.2894737 108.365234 21.9736842 105.107039 21.9736842 103.206473 25.3026316 98.9790313 25.3026316 103.093408 18.0657895 111.216797 18.0657895 111.216797 27.7631579 107.949334 27.7631579 106.618652 30.0789474 111.216797 30.0789474 111.216797 34.8552632 106.884846 34.8552632 104.908143 31.3815789 99.6735293 31.3815789 98.3559648 33.6973684 103.591576 33.6973684 105.568279 37.1710526 111.216797 37.1710526 111.216797 46.1447368 104.173865 46.1447368 105.491572 48.4605263 111.216797 48.4605263 111.216797 51.9342105 103.093408 51.9342105 96.1812207 39.7763158 100.150311 39.7763158 101.961195 42.9605263 108.365234 42.9605263 108.365234 40.6447368"></polygon>
                </g>
            </g>
        </g>
    </g>
</svg>